<?xml version="1.0" encoding="UTF-8"?>
<svg id="Layer_1" data-name="Layer 1" xmlns="http://www.w3.org/2000/svg" viewBox="0 0 375 375">
  <defs>
    <style>
      .cls-1 {
        fill: #ee6d23;
      }

      .cls-2 {
        fill: #313592;
      }

      .cls-3 {
        fill: #c16ec0;
      }

      .cls-4 {
        fill: #98198e;
      }

      .cls-5 {
        fill: #49ace4;
      }

      .cls-6 {
        fill: #1f1a17;
        fill-rule: evenodd;
      }
    </style>
  </defs>
  <path class="cls-6" d="m133.09,195.18c2.4.31,5.24.87,5.73,1.13.67.35-6.25,1.24-10.74,1.38-1.44.04-1.48.04-.95-.08,1.32-.3,2.39-1.1,2.88-2.17l.25-.54.77.05c.42.03,1.35.13,2.05.22m-4.07-.27c0,.4-1,1.21-1.8,1.45-1.26.38-4.76-.14-4.75-.7,0-.22,1.73-.62,3.25-.76.75-.07,3.3-.05,3.3.01m108.32-11.05c.41.46.84,2.02.83,3.05v.44s-.35-.39-.35-.39c-.76-.86-1.13-2.12-.85-2.95.11-.35.17-.37.37-.16m-112.4-22.2c.01,3.3-.16,4.58-.77,5.79-.27.53-.36.57-.5.22-.71-1.69-.08-7.73.96-9.31l.14-.21.08.39c.04.21.08,1.62.09,3.12m122.62-10.04c-.03.89-.18,2.71-.35,4.23-.69,6.12-.64,9.16.24,15.5.79,5.63.6,7.17-.98,7.96-.86.43-2.72.57-4.17.31l-.28-.05v-.57c0-1.52.34-3.79,1.47-9.9.47-2.54,1.14-6.32,1.49-8.39,1.01-5.91,1.39-7.69,2.04-9.48.57-1.58.6-1.56.54.39m-115.86,7.69c-.03,14.19-.16,16.18-1.12,17.44-.26.34-.3.31-.52-.41-.77-2.54-.53-8.03.89-20.42.51-4.46.64-5.69.69-6.4.03-.41.06-.75.07-.75s0,4.74,0,10.54m96.62-1.47l.02,3.46-.2.16c-.67.54-1.7-.64-2.38-2.74-.51-1.57-.51-1.59-.05-2.38,1.03-1.75,1.94-4.43,2.37-7.02.13-.78.2,1.55.24,8.51m-96.5-9.65c-.02.11-.04.04-.04-.15,0-.19.02-.28.04-.19.02.08.02.24,0,.34m103.09-.45c.31,7.71.16,13.64-.41,16.61-.58,3.01-2.16,5.87-3.02,5.48-.85-.39-1.44-3.19-1.44-6.81v-1.04s.4-.59.4-.59c1.78-2.63,3.37-8.95,4.16-16.47l.11-1.07.06.81c.03.45.1,1.83.15,3.08m-8.09-5.23c.62,2.82-.19,8.82-1.59,11.81-.28.59-.29.56-.41-1.61-.25-4.41.25-8.93,1.23-11.07l.27-.59.17.32c.09.18.25.69.34,1.14m-26.52-3.42s-.11.09-.18.09-.1-.04-.08-.09c.03-.05.11-.09.18-.09s.1.04.08.09m5.78-1.96c.54.12.52.22-.09.53-1.61.81-5.21.73-5.21-.11,0-.23.03-.25.32-.25.18,0,.88-.06,1.56-.12,1.62-.14,2.88-.16,3.42-.04m-77.23-.77c1.65.58,1.79,7.21.4,19.94-.25,2.33-.57,5.32-.7,6.63-.13,1.32-.25,2.24-.26,2.05-.22-3.33-.96-6.33-1.86-7.53-.16-.22-.21-.48-.34-1.75-.44-4.5-.96-6.17-2.94-9.44-.45-.74-.8-1.37-.77-1.39.02-.02.42.05.89.17s1.32.33,1.89.46c.57.14,1.48.43,2.01.65,1.72.71,2.05.7,2.11-.1.13-1.73-3.88-3.79-6.36-3.26-.72.15-.73.15-.73-.35,0-1.67,3.62-5.47,5.76-6.05.56-.15.58-.15.91-.04m73.31-.21c-.11.02-.28.02-.39,0-.11-.02-.02-.04.19-.04s.3.02.19.04m5.16-.17c-.05.31-.08.36-.2.32-.38-.16-.93-.3-1.21-.3h-.31s.3-.09.3-.09c.66-.19,1-.33,1.2-.53l.21-.2.03.22c.02.12,0,.39-.03.59m-1.18-1.6c.46.16.21.41-.54.55-.6.11-4.96.19-5.03.09-.12-.17-.07-.21.34-.26.22-.03.96-.15,1.65-.26.68-.11,1.38-.22,1.54-.24.46-.06,1.73.01,2.04.12m-4.8-1.5c-.41.06-.79.14-.84.17-.04.03-.08,0-.08-.08,0-.14.31-.19,1.2-.2.42,0,.39,0-.28.11m3.76-.13c.64.09,1.54.4,1.2.41-.09,0-.61-.07-1.16-.16-.55-.09-1.36-.2-1.81-.24l-.81-.07h.96c.53-.02,1.26.02,1.63.07m27.36-.37c.37.4.69,1.59.88,3.23.59,5.04-1.08,17.2-3.07,22.42l-.29.76-.06-3.5c-.18-10.76-.04-15.04.58-18.66.49-2.85,1.41-4.85,1.95-4.26m-28.1-1.73c.45.07,1.08.21,1.41.31l.6.18-.29.09c-.22.07-.64.04-1.8-.12-.83-.11-1.9-.21-2.38-.21-.48,0-.85-.03-.83-.06.19-.3,1.94-.41,3.28-.19m-.13-3.38c1.44.25,1.55.33.43.34-1.18,0-2.67-.12-3.68-.31l-.77-.15.39-.06c.61-.09,2.61,0,3.64.18m-4.43-1.41c-2.25.43-2.25,1.95,0,2.61.44.13.44.13.04.47-.83.71-1,1.47-.92,4.08.06,1.82.05,2-.13,2.93-.21,1.09-.18,1.52.19,2.02l.17.24-.25.18c-.95.68-2.44.88-9.04,1.2-8.58.42-23.24,1.86-27.52,2.7-.58.11-5.32.74-6.44.85-5.58.56-9.69-.56-16.03-4.35-5.06-3.03-6.1-4.49-6.98-9.78-.42-2.56-.79-3.18-1.84-3.16-1.99.05-2.92,2.36-2.07,5.13.33,1.08,1.01,3.65.97,3.69-.01.01-.23-.05-.49-.14-3.14-1.08-10.07,6.07-8.61,8.89.13.25.12.28-.05.58-.42.71-.21,1.39,1.05,3.31,1.8,2.74,2.48,4.82,2.78,8.51l.06.69-.27.05c-2.34.47-3.49,10.58-1.4,12.3,1.51,1.25,3.29-1.71,3.37-5.57.05-2.98.59,1.95.93,8.57.2,3.79.46,6.11,1.37,11.9.89,5.69.99,6.6.95,8.7v.61s-1.74.05-1.74.05c-3.68.11-5.98.67-6.67,1.63-.87,1.2.21,2.39,2.58,2.84.62.12.61.12-.86.07-5.86-.17-8.87-.61-15.54-2.26-12.83-3.17-17.9-2.54-29.48,3.65-9.84,5.27-15.68,6.97-20.43,5.95-3.61-.78-4.92-2.24-9.8-10.93-.53-.94-1.03-1.81-1.11-1.93-.32-.45-1.39-2.25-1.68-2.81-.44-.85-.68-1.13-.85-.96-.14.14.03.98.28,1.42.05.09.3.88.56,1.76,1.09,3.73,3.23,8.25,5.05,10.67,3.33,4.41,7.98,5.63,15.02,3.91,3.6-.88,6.84-2.21,13.62-5.61,8.61-4.31,12.68-5.42,18.53-5.06,3.14.19,5.26.58,11.18,2.02,9.09,2.22,18.7,2.53,28.46.93,3.49-.57,4.46-1.08,4.28-2.25-.21-1.44-3.79-2.54-9.59-2.97l-.77-.06v-1.25c-.02-1.56-.15-2.56-.95-7.16-.58-3.34-.95-5.82-1.1-7.32l-.06-.56.23.45c1.02,2,2.91,1.12,3.43-1.61.16-.82.28-6.25.29-12.84,0-3.92.04-4.86.39-11.86.44-8.7.21-12.04-1.06-15.59-.19-.53-.44-1.41-.57-1.97-.13-.56-.38-1.61-.57-2.34-.41-1.6-.48-2.52-.2-2.99.26-.45.35-.41.47.18,1.33,6.72,2.54,8.36,8.78,12.01,7.88,4.6,10.42,5.04,21.1,3.64,10.19-1.34,18.81-2.21,27.95-2.82,5.98-.4,7.99-.63,9.4-1.06.39-.12.41-.12.41.04,0,.32.24.64.61.81,1.04.47,4.95-.03,6.53-.84,1.06-.54,4.43,0,5.84.93,2.71,1.8,3.71,4.03,4.27,9.49.45,4.43.9,6.16,2.02,7.75,1.31,1.87,3.65,2.14,5.64.65.35-.26.34-.27.64.59.87,2.53,2.7,4.23,4.01,3.73l.21-.08.06,1.04c.23,4.12.92,6.27,2.26,7.06,2.24,1.32,4.99-2.55,5.7-8.02.51-3.9.41-12.27-.26-21.92-.26-3.75-.25-8.12.02-8.39.14-.13.94,1.2,1.33,2.2,1.24,3.21,1.7,8.04,1.58,16.63-.1,7.04-.24,8.33-1.38,12.8-2.03,7.94-2.72,9.37-4.93,10.22-2.9,1.12-9.9,1.03-12.38-.16-2.13-1.02-2.46-1.99-2.47-7.2,0-4.45-.16-5.59-.98-7.33-1.85-3.95-7.16-6.39-15.8-7.26-6.32-.64-20.43-1.01-28.42-.74-10.72.35-18.6.8-23,1.3-8.13.92-10.07,2.8-11.59,11.25-.84,4.63-1.41,6.19-3.46,9.28-2.11,3.2-2.42,4.05-1.73,4.74.6.6,1.56.33,2.63-.75.88-.88,1.45-1.82,3.04-4.93,1.82-3.56,2.56-4.76,3.98-6.42,4.26-5,12.24-7.37,24.87-7.37,22.88,0,31.66,6.12,27.22,18.97-1.6,4.65-4.33,8.2-9.77,12.73-4.51,3.76-5.19,5.54-2.79,7.32,4.34,3.2,23.17,4.72,31.7,2.56,5.66-1.44,7.37-3.65,7.04-9.16-.35-5.81.09-7.87,2.02-9.49,2.8-2.36,7.51-2.85,15.49-1.62l2.06.32.14.57c.67,2.65,2.89,3.59,6.59,2.78,5.65-1.24,5.77-1.24,10.14-.31,4.63.98,5.64.84,9.28-1.32,1.76-1.04,1.96-1.05,2.32-.03.33.93.68,4.06.56,5.01-.11.88-.42.98-2.29.73-2.91-.4-4.11-.34-8.37.39-4.34.74-4.38.74-6.63-.53-1.27-.72-1.83-.85-3.51-.84-1.59,0-1.53,0-4.54.81-1.28.35-1.44.37-2.53.38-1.63,0-1.63.01-1.63-.7,0-3.52-1.53-6.2-3.23-5.63-2.18.72-1.66,4.47.88,6.39l.54.41.05,2c.2,8.56,3.27,12.64,10.77,14.32,6.39,1.43,11.33.46,20.71-4.07,6.6-3.19,9.76-4.01,14.54-3.81,6.15.26,10.86,1.6,18.23,5.19,5.15,2.5,7.4,3.18,11,3.31,5.34.2,9.58-1.77,12.97-6.02,1.95-2.44,3.94-6.6,3.29-6.85-.37-.14-.65.19-1.67,1.95-3.86,6.64-8.01,9.44-13.99,9.44-3.47,0-5.88-.67-10.73-2.98-6.49-3.09-10.75-4.41-16.07-5.01-6.66-.74-10.4,0-17.76,3.55-5.16,2.48-7.38,3.34-10.1,3.93-6.07,1.3-12.89-.09-16.18-3.3-2.2-2.15-3.03-4.56-3.22-9.43l-.06-1.53.42.07c1.12.19,2.08.07,4.87-.62,3.63-.89,4.58-.85,6.85.26,1.88.92,2.75.95,7.02.23,3.91-.66,5.18-.75,7.06-.49,3.23.45,3.8.36,4.25-.72.47-1.13.26-5.37-.34-6.77-.75-1.75-1.86-1.8-4.53-.18-2.95,1.78-3.81,1.86-8.58.79-3.46-.77-4.46-.73-9.29.37-3.34.76-4.81.49-5.44-1.02-.18-.42-.16-.5.09-.44,1.02.26,3.67,0,4.64-.46,2.37-1.11,2.8-3.29,1.87-9.55-.93-6.26-.95-9.59-.09-16.82.54-4.54.25-6.16-1.12-6.16-1.63,0-2.77,3.07-3.97,10.66-.56,3.55-1.14,6.95-1.83,10.79-.96,5.27-1.23,7.09-1.39,9.05-.04.53-.09.75-.17.75-.06,0-.84-.12-1.72-.26-7.48-1.22-12.4-.75-15.79,1.51-2.48,1.65-3.45,4.04-3.3,8.17.16,4.51.17,5.61.02,6.26-.83,3.73-5.44,5.34-15.29,5.34-10.41,0-19.15-1.46-21.31-3.56-.99-.96-.4-1.83,3.42-4.99,5.47-4.53,8.72-9.05,10.32-14.32,2.81-9.29-1.23-15.43-11.89-18.04-8.05-1.98-21.63-2.29-29.68-.68-9.34,1.87-13.62,5.06-17.43,13.04-1.14,2.37-1.68,3.41-2.16,4.16-.39.61-1.43,1.73-1.52,1.64-.08-.08.6-1.35,1.51-2.81,2.07-3.34,2.54-4.67,3.63-10.22,1.44-7.37,3.21-9.13,9.93-9.89,2.72-.3,11.17-.79,23.38-1.34,10.29-.46,24.79.13,31.74,1.31,5.43.92,9.69,2.98,11.3,5.47,1.16,1.79,1.39,3.14,1.3,7.49-.1,5,.43,6.58,2.69,8,2.94,1.84,11.21,2.12,14.46.48,1.94-.98,2.81-2.27,3.81-5.68,2.76-9.38,2.96-10.68,3.1-19.71.15-10.17-.72-15.76-2.9-18.61-1.28-1.66-3.14-1.35-3.45.59l-.06.36-.24-.58c-1.11-2.64-3.2-2.22-4.39.88-.66,1.72-1.22,4.99-1.39,8.07l-.06,1.06-.2-.76c-.46-1.75-1.19-2.47-2.16-2.15-2.25.75-3.64,9.56-2.6,16.54l.14.96-.38.34c-1.38,1.26-3.05,1.27-3.96.01-.88-1.2-1.3-2.8-1.68-6.43-.58-5.52-1.3-7.62-3.34-9.68-1.67-1.68-3.31-2.44-5.51-2.54-.96-.04-1.09-.07-1.04-.19.54-1.27.57-1.56.58-5.23v-3.21s.37-.35.37-.35c.46-.45.44-1.06-.04-1.41-.09-.07-.25-.3-.36-.52-.71-1.49-5.27-2.57-8.34-1.99"/>
  <g>
    <path class="cls-4" d="m186.43,239.44c-.16.12-4.8-7.45-14.92-13.93-9.91-6.45-25.3-11.82-42.12-6.51-1.54-2.22-3.11-4.42-4.71-6.59-.17.18,10.81-3.17,24.29-.53,13.41,2.35,29.34,10.7,37.45,27.57"/>
    <path class="cls-1" d="m141.59,199.36c1.41,2.42,2.79,4.85,4.14,7.3-.34-.31,25.49,1.38,40.67,26.42-.13-.03-1.72-6.79-8.16-14.93-6.42-7.97-17.7-17.32-36.65-18.79"/>
    <path class="cls-5" d="m186.46,245.55s-.01-.02-.02-.02c.01.02.02.02.02.02-8.79-18.84-28.65-25.49-44.9-24.47-16.46.54-29.32,8.74-29.08,8.44,8.41,7.36,16.17,15.35,23.24,23.85-4.31-7.11-8.86-14.07-13.66-20.85,17.51-10.62,35.43-7.22,46.94-1.26,11.84,5.97,17.27,14.49,17.46,14.29"/>
    <path class="cls-4" d="m187.94,239.44c.16.12,4.8-7.45,14.92-13.93,9.91-6.45,25.3-11.82,42.12-6.51,1.54-2.22,3.11-4.42,4.71-6.59.17.18-10.81-3.17-24.29-.53-13.41,2.35-29.34,10.7-37.45,27.57"/>
    <path class="cls-1" d="m232.78,199.36c-1.41,2.42-2.79,4.85-4.14,7.3.34-.31-25.49,1.38-40.67,26.42.13-.03,1.72-6.79,8.16-14.93,6.42-7.97,17.7-17.32,36.65-18.79"/>
    <path class="cls-5" d="m187.91,245.55s.01-.02.02-.02c0,.02-.02.02-.02.02,8.79-18.84,28.65-25.49,44.9-24.47,16.46.54,29.32,8.74,29.08,8.44-8.4,7.36-16.17,15.35-23.24,23.85,4.31-7.11,8.86-14.07,13.66-20.85-17.51-10.62-35.43-7.22-46.94-1.26-11.84,5.97-17.27,14.49-17.46,14.29"/>
    <path class="cls-2" d="m187.19,214.4c-7.83-11.25-17.47-10.58-17.37-10.56,11.16,6.05,17.42,20.54,17.37,20.49-.05.05,6.21-14.44,17.37-20.49.11-.03-9.54-.69-17.37,10.56"/>
  </g>
  <path class="cls-2" d="m190.6,206.35c-.04,1.71-1.56,3.06-3.41,3.06s-3.38-1.35-3.41-3.06c-.03-1.71,1.49-3.14,3.41-3.14s3.45,1.43,3.41,3.14"/>
  <g>
    <path class="cls-3" d="m79.75,187.65l-2.9-.05.1-6.15c0-.27-.06-.52-.18-.74-.13-.22-.3-.4-.52-.52-.22-.13-.46-.19-.72-.2-.27,0-.52.06-.74.18-.22.13-.4.3-.54.51-.14.21-.21.45-.22.73l-.04,2.22c-.01.84-.19,1.59-.53,2.27-.34.67-.83,1.21-1.48,1.61-.64.4-1.41.59-2.3.58-.88-.01-1.64-.22-2.29-.61-.64-.39-1.14-.92-1.49-1.58-.35-.66-.51-1.38-.5-2.18l.1-6.36,2.9.05-.1,5.94c0,.25.05.47.16.68.11.21.27.37.48.48.2.11.42.17.66.18.26,0,.49-.05.69-.15.2-.11.36-.26.48-.47.12-.2.18-.43.19-.68l.04-2.32c.01-.92.2-1.71.56-2.39.36-.67.86-1.19,1.5-1.55s1.38-.53,2.23-.52c.97.02,1.81.22,2.5.62.69.4,1.21.93,1.56,1.59.35.66.51,1.39.5,2.19l-.11,6.64Z"/>
    <path class="cls-3" d="m80.15,173.99l-14.88-2.05.43-3.14,5.12.71c-.27-.47-.44-.95-.51-1.46s-.08-1.01-.01-1.5c.13-.96.45-1.75.95-2.34.5-.6,1.12-1.01,1.87-1.25.75-.24,1.57-.29,2.46-.17l6.01.83-.44,3.16-5.89-.81c-.39-.05-.76-.01-1.09.13s-.61.35-.83.63-.36.6-.41.97,0,.72.12,1.06c.13.34.34.62.61.85s.6.37.98.43l5.95.82-.43,3.14Z"/>
    <path class="cls-3" d="m83.55,156.45c-.25.91-.69,1.65-1.33,2.21-.64.56-1.42.93-2.32,1.1-.91.17-1.85.13-2.83-.13-1.03-.28-1.89-.76-2.59-1.43-.69-.68-1.16-1.49-1.42-2.45-.25-.96-.23-2,.08-3.14.3-1.12.8-2.02,1.5-2.7.69-.67,1.5-1.11,2.42-1.33.92-.21,1.89-.18,2.9.09l5.06,1.37-.81,3.02-1.63-.44-.02.06c.3.3.56.63.76,1,.2.37.33.79.38,1.24.05.45,0,.96-.16,1.53Zm-2.42-1.63c.13-.48.12-.92-.02-1.32-.14-.4-.39-.75-.75-1.05s-.79-.52-1.29-.66c-.49-.13-.96-.16-1.41-.08-.45.08-.83.26-1.16.55-.33.29-.55.66-.68,1.13-.13.48-.12.93.02,1.35.14.42.38.78.72,1.07.34.29.76.5,1.25.63.5.14.99.17,1.45.09.46-.07.85-.26,1.18-.54.33-.29.56-.68.69-1.17Z"/>
    <path class="cls-3" d="m86.2,146.97l-14.07-5.26,1.11-2.97,14.07,5.26-1.11,2.97Z"/>
    <path class="cls-3" d="m90.87,135.89c-.51,1.08-1.17,1.93-1.96,2.55s-1.66,1-2.59,1.11c-.94.12-1.87-.05-2.8-.49-1.04-.5-1.83-1.14-2.37-1.94-.54-.8-.83-1.65-.88-2.56-.05-.91.14-1.82.56-2.71.48-1,1.09-1.74,1.83-2.21.74-.47,1.56-.7,2.45-.7s1.8.22,2.72.66c.17.08.36.18.56.3.2.12.36.23.46.32l-2.98,6.24c.38.06.73.04,1.04-.05.31-.09.6-.28.86-.56.26-.28.49-.62.69-1.03l1.37-2.88,2.38,1.13-1.34,2.8Zm-6.82-.22l1.73-3.62c-.21-.07-.42-.12-.63-.15s-.41-.04-.6-.01c-.19.03-.37.08-.55.17-.18.09-.34.21-.49.37-.14.16-.27.34-.37.55-.14.28-.2.56-.21.84s.04.52.13.75.22.43.4.61c.18.18.37.35.57.49Z"/>
    <path class="cls-3" d="m94.04,129.61l-5.13-3.25c-.74-.47-1.3-1.07-1.67-1.82-.38-.74-.53-1.56-.46-2.45.07-.89.39-1.79.97-2.71.59-.93,1.26-1.61,2.03-2.04.77-.43,1.56-.63,2.39-.6.83.03,1.61.28,2.35.75l5.13,3.25-1.72,2.71-5.06-3.2c-.31-.2-.64-.3-1-.31-.35-.01-.69.06-1.02.22-.33.16-.6.41-.81.74-.21.32-.31.67-.33,1.03-.01.37.07.71.24,1.03.17.32.41.57.71.77l5.06,3.2-1.69,2.68Z"/>
    <path class="cls-3" d="m110.61,107.6c-.59.65-1.26,1.08-2,1.31-.74.23-1.47.25-2.21.08-.74-.17-1.41-.54-2.01-1.09l-5.25-4.81-2.66,2.9-2.14-1.96,7.59-8.28,2.14,1.96-2.63,2.87,5.47,5.02c.24.22.53.32.85.31.32-.02.59-.14.81-.38l.78-.85,2.14,1.96-.89.97Z"/>
    <path class="cls-3" d="m118.46,100.25c-.9.78-1.84,1.3-2.82,1.56-.98.26-1.92.25-2.82-.02s-1.69-.79-2.37-1.57c-.75-.87-1.22-1.78-1.4-2.72-.18-.95-.1-1.85.21-2.7.32-.86.85-1.61,1.6-2.26.84-.73,1.69-1.16,2.56-1.29s1.71-.02,2.53.34,1.56.92,2.23,1.69c.13.15.26.31.39.5.14.19.24.35.29.48l-5.22,4.53c.33.21.65.33.97.37.32.04.66-.02,1.01-.17.35-.15.7-.37,1.04-.67l2.41-2.09,1.72,1.99-2.35,2.04Zm-6.16-2.93l3.03-2.63c-.16-.15-.34-.28-.52-.39-.18-.12-.36-.2-.54-.25s-.37-.07-.57-.06c-.2,0-.4.06-.59.15-.2.09-.38.21-.56.36-.24.21-.41.44-.52.68-.11.25-.17.5-.18.74,0,.24.03.48.12.72s.2.47.33.68Z"/>
    <path class="cls-3" d="m128.22,92.8c-.9.63-1.83,1.01-2.79,1.13-.97.12-1.88,0-2.74-.36-.86-.36-1.58-.95-2.17-1.78-.58-.83-.9-1.71-.96-2.64-.05-.93.14-1.83.57-2.71.43-.88,1.09-1.63,1.99-2.26l1.29-.91,1.55,2.2-1.19.84c-.44.31-.75.67-.93,1.07-.18.41-.25.83-.2,1.27s.22.86.5,1.27c.29.4.63.71,1.03.91.4.2.83.28,1.27.24.44-.04.88-.22,1.32-.53l1.19-.84,1.54,2.19-1.29.91Z"/>
    <path class="cls-3" d="m131.73,90.39l-7.32-13.11,2.77-1.54,2.52,4.51c.21-.49.5-.93.86-1.29.36-.37.76-.67,1.19-.91.85-.47,1.66-.69,2.44-.65.78.04,1.48.28,2.12.74.64.45,1.18,1.07,1.62,1.86l2.96,5.3-2.78,1.55-2.9-5.19c-.19-.35-.45-.61-.76-.79-.31-.18-.65-.27-1.01-.29-.36-.01-.7.07-1.02.25s-.58.43-.77.73c-.19.31-.29.64-.31,1s.06.7.25,1.04l2.93,5.24-2.77,1.54Z"/>
    <path class="cls-3" d="m143.76,83.9l-2.28-5.62c-.33-.81-.43-1.63-.3-2.45.13-.82.48-1.57,1.05-2.26.57-.68,1.36-1.23,2.37-1.64,1.02-.41,1.96-.57,2.84-.47.88.1,1.64.4,2.3.9.66.5,1.15,1.16,1.48,1.98l2.28,5.62-2.97,1.21-2.25-5.55c-.14-.34-.35-.62-.63-.83-.28-.21-.6-.35-.96-.41s-.72-.02-1.09.13c-.36.14-.65.36-.87.65-.22.29-.36.61-.41.97s0,.7.13,1.03l2.25,5.55-2.94,1.19Z"/>
    <path class="cls-3" d="m154.76,67.33c-.49.15-.96.1-1.42-.15-.46-.25-.77-.61-.91-1.1-.15-.5-.1-.98.15-1.44.25-.46.61-.77,1.1-.91.5-.15.98-.1,1.44.15.46.25.77.62.92,1.12.15.49.1.96-.15,1.42-.25.46-.62.77-1.12.92Zm1.87,11.71l-3.04-10.11,3.07-.92,3.04,10.11-3.07.92Z"/>
    <path class="cls-3" d="m167.96,76.1c-1.07.24-2.08.23-3.01-.04-.94-.26-1.73-.73-2.38-1.39-.65-.66-1.09-1.49-1.31-2.48-.22-.99-.17-1.92.14-2.8.31-.88.83-1.64,1.57-2.28.74-.64,1.64-1.08,2.71-1.32l1.55-.34.58,2.63-1.43.32c-.52.12-.95.33-1.27.63-.33.3-.55.67-.67,1.1-.12.43-.13.88-.02,1.36.11.48.31.89.6,1.24.29.34.65.58,1.08.71.42.13.89.14,1.42.02l1.43-.32.58,2.61-1.55.34Z"/>
    <path class="cls-3" d="m176.37,75c-.94.11-1.79-.04-2.54-.43s-1.38-.98-1.87-1.76c-.49-.78-.8-1.67-.91-2.68-.12-1.06,0-2.04.39-2.93s.96-1.63,1.76-2.22c.8-.59,1.78-.94,2.95-1.08,1.16-.13,2.18,0,3.06.4.88.4,1.59.99,2.12,1.77s.86,1.69.98,2.73l.58,5.21-3.11.35-.19-1.68h-.06c-.16.4-.38.76-.66,1.08-.27.33-.61.6-1.02.81-.4.21-.9.35-1.49.42Zm.63-2.85c.49-.05.9-.22,1.22-.5.32-.28.56-.64.71-1.08.15-.44.2-.93.14-1.44-.06-.5-.2-.95-.44-1.34-.24-.39-.55-.68-.94-.88-.39-.2-.82-.27-1.3-.22-.49.06-.91.23-1.25.51-.34.29-.58.64-.73,1.06s-.19.89-.13,1.39c.06.52.21.98.44,1.38.24.4.55.7.94.9.39.2.83.27,1.34.21Z"/>
    <path class="cls-3" d="m186.18,73.98l-.29-15.02,3.17-.06.29,15.02-3.17.06Z"/>
    <path class="cls-3" d="m206.58,75.15c-.87-.11-1.61-.4-2.22-.87-.61-.47-1.06-1.06-1.34-1.76-.29-.7-.38-1.46-.27-2.27l.9-7.06-3.9-.49.36-2.88,11.14,1.41-.36,2.88-3.86-.49-.93,7.37c-.04.33.04.62.24.87.2.25.46.4.77.44l1.14.14-.36,2.88-1.31-.17Z"/>
    <path class="cls-3" d="m211.7,76.06l1.64-7.26c.21-.94.65-1.61,1.3-2.03.66-.41,1.46-.51,2.41-.3l3.01.68-.57,2.53-2.23-.5c-.19-.04-.36-.02-.53.08-.16.1-.27.25-.31.45l-1.6,7.06-3.13-.71Z"/>
    <path class="cls-3" d="m223.92,79.54c-.9-.3-1.6-.79-2.12-1.46-.52-.67-.84-1.47-.95-2.38-.12-.92-.02-1.85.31-2.82.34-1.01.87-1.84,1.59-2.49.72-.65,1.56-1.07,2.53-1.26s2.01-.1,3.13.27c1.1.37,1.97.93,2.6,1.66.63.73,1.02,1.57,1.17,2.5.16.94.07,1.9-.27,2.88l-1.68,4.97-2.96-1,.54-1.6-.06-.02c-.31.29-.66.52-1.05.7-.39.18-.81.28-1.26.3-.46.02-.96-.06-1.52-.25Zm1.78-2.31c.47.16.91.18,1.31.06s.77-.34,1.1-.68c.32-.34.57-.76.74-1.25.16-.48.22-.95.17-1.4-.05-.45-.21-.85-.48-1.19-.27-.34-.63-.59-1.08-.75-.47-.16-.92-.18-1.35-.06-.43.12-.8.33-1.11.66-.31.32-.55.72-.71,1.2-.17.49-.23.97-.18,1.44.05.46.2.87.47,1.21.27.34.64.6,1.12.76Z"/>
    <path class="cls-3" d="m233.24,82.78l4.3-9.64,2.93,1.31-4.3,9.64-2.93-1.31Zm6.23-10.08c-.46-.21-.79-.55-.98-1.04-.19-.49-.18-.96.03-1.43.21-.48.56-.81,1.05-1,.49-.19.97-.18,1.43.03.48.21.81.56,1,1.05.19.49.18.97-.04,1.45-.21.46-.55.79-1.04.98-.49.19-.97.17-1.45-.04Z"/>
    <path class="cls-3" d="m239.16,85.4l2.97-5.29c.43-.77,1-1.35,1.72-1.77s1.53-.61,2.42-.59,1.81.3,2.76.83c.96.54,1.67,1.18,2.14,1.92s.71,1.53.73,2.36-.19,1.62-.62,2.39l-2.97,5.29-2.8-1.57,2.93-5.22c.18-.32.27-.66.26-1.01,0-.35-.1-.68-.27-1-.17-.32-.44-.58-.78-.77-.33-.19-.69-.28-1.05-.27-.37,0-.7.1-1.01.29-.31.19-.55.44-.73.75l-2.93,5.22-2.76-1.55Z"/>
    <path class="cls-3" d="m250.99,92.41l5.99-8.69,2.64,1.82-5.99,8.69-2.64-1.82Zm7.97-8.77c-.42-.29-.67-.69-.77-1.2s0-.98.29-1.4c.3-.43.7-.69,1.22-.79.51-.09.98,0,1.4.29.43.3.69.7.79,1.22.09.51,0,.99-.3,1.42-.29.42-.69.67-1.2.77-.52.09-.99,0-1.42-.3Z"/>
    <path class="cls-3" d="m256.35,96.09l3.89-4.66c.56-.67,1.23-1.15,2.02-1.42.78-.28,1.61-.32,2.49-.14.87.18,1.73.62,2.56,1.32.84.7,1.43,1.46,1.75,2.28.33.82.42,1.63.29,2.45-.14.82-.48,1.56-1.05,2.23l-3.89,4.66-2.46-2.06,3.83-4.6c.24-.28.38-.6.44-.95.06-.35.03-.69-.09-1.04-.11-.34-.32-.65-.63-.9-.29-.25-.62-.4-.98-.46-.36-.06-.71-.03-1.05.1-.34.13-.62.33-.85.6l-3.83,4.6-2.43-2.03Z"/>
    <path class="cls-3" d="m264.75,109l2-1.87,3.59,3.85c.14.15.3.23.49.25.18.02.35-.05.5-.19l1.7-1.59-.04-.04c-.42.01-.81-.02-1.17-.09-.36-.08-.72-.21-1.06-.42-.35-.2-.68-.47-1-.81-.64-.68-1.04-1.44-1.22-2.28-.18-.84-.12-1.69.17-2.53s.81-1.62,1.56-2.33c.72-.67,1.54-1.13,2.44-1.38.91-.25,1.83-.23,2.76.04.93.27,1.81.85,2.63,1.73.79.84,1.29,1.73,1.52,2.67.23.94.19,1.87-.12,2.8-.31.93-.88,1.78-1.72,2.57l-4.51,4.21c-.69.65-1.43.96-2.21.94-.78-.02-1.51-.39-2.18-1.12l-4.13-4.42Zm7.5-2.16c.34.36.71.59,1.12.7.41.11.82.1,1.23-.02.41-.12.79-.34,1.13-.66.36-.34.62-.71.79-1.13.16-.42.21-.84.15-1.28-.07-.43-.27-.83-.59-1.18-.33-.35-.7-.58-1.13-.68-.42-.1-.85-.09-1.27.03-.42.12-.81.35-1.17.69-.35.33-.6.7-.76,1.12-.16.42-.19.83-.11,1.26.08.42.29.81.62,1.16Z"/>
    <path class="cls-3" d="m283.76,126.42c-.63-.98-1.06-1.96-1.27-2.96s-.22-1.94-.04-2.86.55-1.75,1.1-2.53c.55-.77,1.24-1.43,2.1-1.98s1.74-.92,2.66-1.1c.92-.18,1.84-.17,2.76.04s1.78.6,2.6,1.19,1.54,1.37,2.18,2.35l1.22,1.88-2.43,1.58-1.16-1.79c-.35-.54-.76-.98-1.23-1.3-.47-.33-.96-.54-1.5-.65-.53-.1-1.07-.09-1.62.03-.55.13-1.07.35-1.58.68-.52.34-.94.73-1.28,1.17s-.56.93-.68,1.46c-.12.53-.13,1.08-.03,1.64.1.56.33,1.11.68,1.65l1.16,1.79-2.42,1.57-1.22-1.88Z"/>
    <path class="cls-3" d="m288.43,135.44c-.48-.97-.7-1.95-.65-2.94s.33-1.89.86-2.72c.52-.83,1.26-1.47,2.21-1.94.93-.46,1.89-.65,2.86-.56.97.09,1.86.42,2.68.98.82.57,1.46,1.33,1.93,2.29.48.97.69,1.95.64,2.93-.05.98-.34,1.88-.86,2.7s-1.26,1.46-2.2,1.93c-.93.46-1.89.65-2.86.57-.97-.08-1.86-.4-2.67-.95-.81-.56-1.46-1.32-1.93-2.29Zm2.48-1.25c.22.45.53.8.92,1.03.39.23.81.34,1.27.35.46,0,.92-.11,1.39-.34.46-.23.82-.52,1.1-.89.28-.37.44-.77.5-1.22.05-.45-.03-.9-.25-1.35-.22-.44-.52-.78-.91-1.01s-.81-.34-1.27-.35c-.46,0-.92.11-1.37.33-.47.23-.84.53-1.12.9-.28.37-.44.77-.5,1.22-.05.45.03.89.25,1.34Z"/>
    <path class="cls-3" d="m292.13,143.1l14.02-5.38,1.14,2.96-14.02,5.38-1.13-2.96Z"/>
    <path class="cls-3" d="m294.39,149.28l14.32-4.53.96,3.02-14.32,4.53-.96-3.02Z"/>
    <path class="cls-3" d="m297.54,160.85c-.26-1.16-.27-2.24-.03-3.22.24-.98.69-1.8,1.36-2.47.67-.67,1.5-1.11,2.51-1.34,1.12-.25,2.14-.23,3.06.07.92.29,1.67.79,2.28,1.48s1.01,1.51,1.22,2.48c.24,1.08.21,2.04-.08,2.86-.29.82-.79,1.51-1.5,2.06s-1.55.94-2.55,1.16c-.19.04-.4.08-.63.11-.23.03-.42.04-.56.03l-1.5-6.75c-.34.19-.6.41-.79.68s-.3.59-.33.97c-.04.38,0,.79.09,1.23l.69,3.11-2.57.57-.67-3.03Zm5.51-4.03l.87,3.92c.21-.07.41-.16.59-.27.19-.1.35-.22.48-.36.13-.13.24-.29.33-.47.09-.18.14-.38.15-.59.02-.21,0-.44-.05-.66-.07-.31-.19-.57-.35-.79-.17-.22-.36-.38-.57-.51-.21-.12-.44-.2-.7-.24-.25-.04-.5-.05-.75-.03Z"/>
    <path class="cls-3" d="m294.91,169.76l2.72-.27.52,5.24c.02.2.1.37.23.49.14.12.31.18.51.16l2.31-.23v-.06c-.35-.24-.64-.5-.88-.78-.24-.28-.44-.6-.59-.98-.15-.37-.25-.79-.3-1.25-.09-.93.05-1.78.42-2.55.37-.77.93-1.41,1.67-1.91.74-.5,1.63-.8,2.65-.9.98-.1,1.91.03,2.78.39.87.36,1.59.93,2.16,1.71.57.78.92,1.78,1.04,2.98.11,1.15-.02,2.16-.41,3.05-.39.89-.99,1.6-1.79,2.15-.81.55-1.78.88-2.93.99l-6.14.61c-.94.09-1.72-.11-2.32-.6s-.96-1.23-1.05-2.21l-.59-6.02Zm7.27,2.84c.05.49.2.9.46,1.24.26.33.59.58.99.73.4.15.83.21,1.3.16.49-.05.93-.19,1.31-.42.38-.23.68-.54.89-.92.21-.39.29-.82.25-1.3-.05-.48-.21-.89-.48-1.22-.27-.34-.62-.59-1.02-.75-.41-.16-.86-.21-1.35-.17-.48.05-.9.19-1.28.43-.38.24-.66.55-.85.93-.19.38-.26.81-.21,1.29Z"/>
    <path class="cls-3" d="m299.93,187.12c.02-1.19.27-2.24.73-3.13s1.1-1.59,1.9-2.08,1.72-.73,2.75-.71c1.15.02,2.14.29,2.96.79.82.5,1.44,1.16,1.86,1.97.42.81.62,1.71.6,2.7-.02,1.11-.27,2.03-.75,2.76-.48.73-1.13,1.28-1.95,1.65-.82.37-1.73.54-2.75.52-.19,0-.4-.02-.64-.04-.23-.03-.42-.06-.55-.1l.14-6.91c-.37.1-.68.26-.93.48s-.43.5-.55.86c-.12.36-.19.77-.2,1.22l-.06,3.19-2.63-.05.06-3.11Zm6.31-2.61l-.08,4.01c.22-.02.43-.06.64-.12s.39-.14.55-.24c.16-.1.3-.23.43-.38.13-.16.22-.33.29-.54.07-.2.1-.42.11-.66,0-.32-.05-.6-.16-.85s-.25-.46-.43-.63-.38-.3-.62-.39c-.24-.09-.48-.16-.73-.21Z"/>
  </g>
  <g>
    <path d="m105.8,250.16c-.84,0-1.56.35-2.14,1.06s-.88,1.56-.88,2.54c0,.36.04.69.13.99s.22.58.41.84c.19.26.45.46.8.59s.76.19,1.24.17c.01.06.02.15.02.25,0,.56-.39.84-1.17.84h-.5c-.86.21-1.54.61-2.03,1.2s-.74,1.27-.74,2.04c0,.88.33,1.59.99,2.13s1.7.81,3.1.81c1.3,0,2.42-.21,3.36-.62.94-.41,1.63-.87,2.08-1.38.32,0,.45.16.38.48-.07.33-.31.69-.72,1.07s-.93.74-1.55,1.08c-.63.34-1.38.62-2.27.85s-1.79.34-2.7.34c-1.73,0-3.12-.37-4.15-1.11-1.03-.74-1.55-1.76-1.55-3.07,0-1,.35-1.89,1.06-2.67s1.68-1.33,2.9-1.64c-.67-.32-1.19-.76-1.56-1.33-.37-.57-.56-1.21-.56-1.9,0-1.37.55-2.51,1.64-3.42s2.48-1.35,4.17-1.35c1.4,0,2.48.33,3.26.99.78.66,1.17,1.47,1.17,2.44,0,.73-.19,1.32-.56,1.77-.37.45-.9.68-1.58.68-.28,0-.53-.04-.76-.13s-.38-.18-.46-.26l-.13-.13s.06-.06.11-.11c.04-.05.12-.15.24-.31.11-.16.21-.32.3-.5s.17-.4.24-.68.11-.55.11-.83c0-1.14-.56-1.71-1.69-1.71Z"/>
    <path d="m125.16,263.53c.44,0,.86-.17,1.27-.51s.75-.81,1.04-1.4c.15,0,.26.05.34.14.08.09.1.24.08.43-.05.29-.19.61-.41.98-.22.37-.5.72-.83,1.06-.33.34-.73.63-1.2.87-.47.23-.95.35-1.43.35-.82,0-1.47-.25-1.95-.75-.48-.5-.71-1.17-.71-2,0-.34.11-1.17.33-2.5l.41-2.43c.16-.92-.02-1.39-.53-1.39-.37,0-.78.32-1.23.95-.46.63-.89,1.49-1.31,2.57s-.73,2.24-.95,3.45c-.07.41-.11.77-.11,1.09,0,.32.01.53.05.64l.04.17c-.22.13-.61.19-1.15.19-.81,0-1.32-.16-1.53-.48-.21-.32-.24-.89-.1-1.7l.97-5.5c.09-.47.09-.82.01-1.05-.08-.23-.25-.34-.52-.34-.37,0-.77.29-1.22.88-.45.58-.88,1.42-1.31,2.51-.43,1.09-.76,2.28-.99,3.59-.07.41-.11.77-.11,1.09,0,.32,0,.53.04.64l.05.17c-.22.13-.6.19-1.15.19-.81,0-1.32-.16-1.53-.48-.21-.32-.24-.89-.1-1.7l1.16-6.72c.07-.41.11-.77.11-1.09,0-.32,0-.53-.04-.64l-.05-.17c.22-.13.6-.19,1.15-.19.81,0,1.32.16,1.52.48.21.32.24.89.1,1.7l-.09.53c.27-.46.57-.88.9-1.25s.73-.71,1.21-1.01.96-.45,1.43-.45c.69,0,1.25.2,1.67.61.42.41.62.97.62,1.68,0,.05,0,.13-.01.24,0,.11-.01.19-.01.25.42-.75.95-1.39,1.59-1.94.64-.55,1.31-.83,2.02-.83s1.24.21,1.65.62.62.96.62,1.65c0,.36-.07.95-.2,1.78l-.53,3.1c-.21,1.29.09,1.93.9,1.93Z"/>
    <path d="m131.05,257.02c.47-.84,1-1.48,1.6-1.92s1.25-.66,1.94-.66c1.01,0,1.79.33,2.34,1,.55.67.83,1.58.83,2.74,0,.62-.06,1.24-.17,1.85.31-.04.62-.12.93-.25.3-.13.56-.28.77-.44.21-.16.39-.32.55-.48s.28-.29.36-.4l.12-.15c.14,0,.25.05.32.15.07.1.09.24.07.41-.07.43-.44.88-1.1,1.35s-1.42.74-2.26.82c-.42,1.35-1.09,2.43-2.01,3.22-.92.79-1.92,1.19-3.01,1.19-1.03,0-1.88-.36-2.54-1.07l-1.17,6.68c-.07.41-.11.77-.11,1.08s.01.53.05.63l.04.17c-.22.14-.61.2-1.15.2-.81,0-1.32-.16-1.53-.48-.21-.32-.24-.89-.1-1.7l2.5-14.42c.07-.41.11-.77.11-1.09,0-.32,0-.53-.04-.64l-.05-.17c.22-.13.6-.19,1.15-.19.82,0,1.33.16,1.53.47.2.32.23.88.09,1.71l-.06.4Zm2.75,1.69c0-.37.1-.7.3-.97.2-.28.47-.45.81-.52-.12-.72-.48-1.07-1.08-1.07s-1.31.58-2.04,1.73c-.77,1.23-1.31,2.66-1.63,4.3l-.15.84c.39.63.95.95,1.68.95.61,0,1.18-.32,1.72-.97.54-.64.95-1.49,1.22-2.53-.54-.43-.82-1.01-.82-1.74Z"/>
    <path d="m145.39,254.44c1.27,0,2.26.38,2.97,1.14s1.07,1.78,1.07,3.06c0,.39-.04.85-.12,1.39.31-.04.61-.13.91-.27.3-.14.55-.29.75-.45s.39-.32.54-.47c.16-.15.28-.28.35-.38l.11-.15c.14,0,.25.05.32.16.07.1.1.24.08.4-.07.42-.43.86-1.07,1.33-.64.46-1.38.74-2.21.84-.39,1.35-1.08,2.42-2.08,3.21s-2.23,1.19-3.69,1.19c-1.2,0-2.18-.37-2.92-1.1-.74-.73-1.12-1.77-1.12-3.1,0-2.02.55-3.66,1.65-4.91,1.1-1.26,2.58-1.89,4.44-1.89Zm.09,4.26c0-.39.1-.71.29-.98s.47-.44.83-.51c-.06-.55-.21-.97-.45-1.26-.24-.29-.57-.44-.98-.44-.6,0-1.16.35-1.67,1.05-.51.7-.91,1.82-1.19,3.35-.13.68-.19,1.44-.19,2.27,0,.7.12,1.23.38,1.6.25.37.61.56,1.07.56.61,0,1.15-.33,1.62-.98.47-.65.85-1.62,1.13-2.92-.56-.43-.84-1.01-.84-1.74Z"/>
    <path d="m167.77,261.02c-.62,0-1.17-.18-1.67-.53-.31.93-.64,1.66-.98,2.18-.56.9-1.14,1.59-1.73,2.06s-1.31.71-2.13.71c-.77,0-1.41-.22-1.93-.65-.52-.43-.89-1.03-1.11-1.79-1.01,1.63-2.2,2.44-3.58,2.44-1.08,0-1.89-.35-2.43-1.06s-.81-1.71-.81-3.01c0-.99.11-2.23.34-3.74l.18-1.1c.06-.41.1-.77.1-1.09,0-.32,0-.53-.04-.64l-.04-.17c.21-.13.59-.19,1.14-.19.81,0,1.32.16,1.53.48s.25.89.1,1.7l-.31,1.78c-.17,1-.26,1.91-.26,2.75s.13,1.48.38,1.84c.25.36.63.54,1.13.54s.99-.27,1.4-.81c.41-.54.74-1.27.97-2.21.04-.87.15-1.83.31-2.88l.17-1.1c.07-.41.11-.77.11-1.09,0-.32,0-.53-.04-.64l-.05-.17c.22-.13.61-.19,1.15-.19.81,0,1.32.16,1.53.48.21.32.24.89.1,1.7l-.31,1.78c-.19,1.07-.28,2.01-.28,2.83s.13,1.38.39,1.74.64.55,1.15.55c.65,0,1.22-.38,1.72-1.14s.82-1.78.99-3.06c-.64-.95-.97-2.04-.97-3.25,0-.48.14-.87.41-1.18.28-.3.63-.46,1.08-.46.42,0,.75.14,1.01.41.25.27.38.69.38,1.25,0,1.02-.15,2.09-.46,3.23.36.48.86.72,1.5.72.32,0,.61-.06.89-.18s.5-.26.67-.43.32-.34.45-.52.22-.32.27-.44l.08-.17c.16,0,.28.06.34.17s.08.24.06.39c-.08.48-.38.96-.91,1.43-.53.48-1.19.71-2,.71Z"/>
    <path d="m173.46,265.44c-1.47,0-2.66-.43-3.58-1.28-.92-.85-1.38-2.01-1.38-3.47,0-.94.17-1.81.51-2.61.34-.8.79-1.46,1.34-1.98.56-.52,1.18-.93,1.88-1.22.7-.29,1.42-.44,2.15-.44,1.05,0,1.83.23,2.36.68s.79.99.79,1.61c0,1.92-2.06,3.27-6.18,4.05.06.85.38,1.55.94,2.1s1.3.82,2.21.82c.56,0,1.08-.06,1.57-.19s.9-.3,1.25-.51.63-.44.87-.67c.24-.23.44-.47.6-.72.31,0,.43.19.35.57-.04.2-.16.44-.34.71-.18.27-.44.56-.78.85-.34.3-.72.57-1.15.82-.43.25-.95.46-1.55.62s-1.22.25-1.86.25Zm.95-9.9c-.32,0-.65.09-.97.28-.33.19-.63.45-.92.79-.29.34-.53.78-.74,1.33-.21.55-.34,1.15-.4,1.81,1.28-.3,2.24-.76,2.86-1.37.63-.61.94-1.3.94-2.07,0-.23-.07-.42-.21-.56s-.33-.21-.56-.21Z"/>
    <path d="m182.3,257.59c.65-1.1,1.32-1.89,2-2.4.68-.5,1.31-.75,1.87-.75s.97.15,1.28.45c.31.3.47.72.47,1.27,0,.62-.17,1.12-.51,1.51-.34.39-.78.59-1.32.59-.17,0-.34-.01-.5-.03s-.29-.04-.37-.06l-.12-.03c.19-.34.29-.7.29-1.1,0-.32-.15-.48-.46-.48-.42,0-.95.43-1.57,1.29-.49.68-.89,1.43-1.22,2.26-.33.83-.62,1.95-.86,3.38-.06.39-.1.73-.1,1.02s.01.49.04.59l.05.15c-.22.13-.61.19-1.15.19-.81,0-1.32-.16-1.53-.48-.21-.32-.24-.89-.1-1.7l1.16-6.72c.07-.41.11-.77.11-1.09,0-.32,0-.53-.04-.64l-.05-.17c.22-.13.6-.19,1.15-.19.81,0,1.32.17,1.53.5.21.33.24.89.1,1.68l-.17.97Z"/>
    <path d="m189.27,256.54c.07-.42.11-.78.11-1.1,0-.32,0-.53-.04-.64l-.05-.16c.22-.13.6-.19,1.15-.19.81,0,1.32.16,1.53.48.21.32.24.89.1,1.7l-.86,4.97c-.21,1.29.11,1.93.95,1.93.39,0,.81-.17,1.24-.52s.79-.81,1.07-1.39c.15,0,.27.05.34.14.08.09.1.24.08.43-.04.24-.14.51-.28.79-.14.28-.34.57-.58.86s-.52.55-.82.79c-.3.24-.65.43-1.04.58-.39.15-.79.23-1.2.23-.77,0-1.4-.24-1.87-.72s-.71-1.16-.71-2.03c0-.64.06-1.34.19-2.09l.71-4.06Zm.77-5.39c0-.44.15-.82.45-1.13s.66-.46,1.08-.46.75.13.99.39c.25.26.37.59.37.99s-.15.76-.44,1.07c-.29.3-.67.46-1.14.46-.39,0-.71-.12-.96-.37-.24-.25-.37-.56-.37-.95Z"/>
    <path d="m201.61,257.76c.09-.51.08-.87-.01-1.07s-.26-.31-.52-.31c-.46,0-.97.32-1.53.96-.56.64-1.09,1.5-1.57,2.59-.49,1.09-.84,2.23-1.05,3.42-.07.41-.11.77-.11,1.09,0,.32,0,.53.04.64l.05.17c-.22.13-.61.19-1.15.19-.81,0-1.32-.16-1.53-.48-.21-.32-.24-.89-.1-1.7l1.16-6.72c.07-.41.11-.77.11-1.09,0-.32,0-.53-.04-.64l-.05-.17c.22-.13.6-.19,1.15-.19.81,0,1.32.16,1.53.48.21.32.24.89.1,1.7l-.17,1.01c.23-.38.49-.75.79-1.11.3-.36.63-.7,1-1.02.37-.32.77-.58,1.21-.77s.87-.29,1.29-.29c.69,0,1.24.21,1.65.62.41.41.62.96.62,1.65,0,.4-.06,1-.19,1.78l-.53,3.1c-.23,1.29.07,1.93.9,1.93.45,0,.88-.17,1.27-.52s.74-.81,1.04-1.4c.15,0,.26.05.34.14.08.09.1.24.08.43-.04.29-.18.61-.4.98-.22.37-.5.72-.83,1.06-.33.34-.74.63-1.21.86-.48.23-.95.35-1.43.35-.82,0-1.47-.25-1.95-.75-.48-.5-.71-1.17-.71-2,0-.41.11-1.24.33-2.5l.42-2.43Z"/>
    <path d="m215.63,263.59c.17-.06.4-.16.67-.28.28-.12.73-.36,1.37-.7.64-.35,1.15-.68,1.55-.99.14,0,.26.04.34.13s.11.21.08.37c-.04.19-.28.45-.72.78-.82.62-1.98,1.29-3.5,2.03l-.04.26c-.44,2.58-1.17,4.56-2.2,5.91-1.03,1.36-2.35,2.04-3.96,2.04-.75,0-1.34-.21-1.79-.64-.45-.43-.67-.98-.67-1.67,0-1.22.62-2.36,1.85-3.42.52-.45,1.08-.86,1.68-1.23.61-.37,1.39-.79,2.35-1.25l.26-1.57c-.89,1.38-1.93,2.07-3.11,2.07-.95,0-1.73-.32-2.33-.97s-.9-1.58-.9-2.81c0-.95.11-1.83.32-2.63.21-.8.49-1.48.85-2.04.35-.55.77-1.03,1.24-1.42.47-.39.96-.68,1.47-.86s1.03-.27,1.55-.27c1.02,0,1.81.36,2.38,1.07.18-.39.42-.67.71-.83.3-.16.72-.24,1.26-.24.22,0,.42.02.61.05.18.04.31.07.38.11l.11.05c-.21.27-.38.79-.5,1.59l-1.28,7.35Zm-6.64,8.1c.77,0,1.45-.46,2.02-1.37s1.03-2.25,1.36-4c-1.49.77-2.52,1.45-3.09,2.02-.87.84-1.3,1.63-1.3,2.35,0,.3.09.54.26.73s.42.27.75.27Zm1.65-8.16c.37,0,.73-.18,1.08-.54.35-.36.66-.82.92-1.4.26-.57.49-1.16.68-1.77.19-.6.34-1.2.46-1.8l.2-1.03c-.31-.71-.79-1.06-1.45-1.06-.38,0-.76.14-1.13.41-.38.28-.72.65-1.02,1.13s-.55,1.09-.75,1.83-.29,1.54-.29,2.39c0,.61.11,1.07.34,1.37s.55.46.96.46Z"/>
    <path d="m231.15,250.16c-.91,0-1.65.25-2.21.74-.57.49-.85,1.14-.85,1.94,0,.46.13.9.4,1.32s.65.78,1.14,1.07l2.79,1.62c1.71,1,2.57,2.32,2.57,3.94,0,.62-.14,1.2-.41,1.76-.27.55-.66,1.05-1.16,1.49-.5.44-1.15.78-1.94,1.04-.79.25-1.67.38-2.65.38-1.5,0-2.71-.33-3.63-1s-1.39-1.51-1.39-2.55c0-.75.18-1.32.54-1.71.36-.39.83-.58,1.39-.58.31,0,.58.05.81.14.22.1.37.2.43.3l.11.14c-.06.05-.13.12-.21.23-.09.1-.2.31-.34.63-.14.32-.21.64-.21.97,0,.67.23,1.21.69,1.61.46.4,1.11.6,1.95.6.96,0,1.74-.25,2.33-.76.59-.51.89-1.13.89-1.87,0-.56-.15-1.05-.46-1.47-.31-.42-.83-.84-1.56-1.26l-2.35-1.34c-.89-.51-1.54-1.08-1.94-1.72-.4-.64-.6-1.36-.6-2.18,0-.62.13-1.2.39-1.76s.63-1.06,1.12-1.49,1.1-.78,1.86-1.04c.76-.26,1.6-.39,2.52-.39,1.55,0,2.81.35,3.77,1.05.96.7,1.44,1.6,1.44,2.69,0,.77-.19,1.36-.57,1.79-.38.43-.91.64-1.58.64-.32,0-.59-.05-.84-.14-.24-.1-.41-.19-.49-.29l-.13-.14s.07-.04.12-.08c.05-.04.14-.12.27-.25s.24-.27.34-.42.18-.36.26-.63c.08-.26.12-.55.12-.85,0-.65-.23-1.18-.69-1.57s-1.14-.6-2.04-.6Z"/>
    <path d="m237.5,254.44l.21-1.19c.08-.41.12-.77.12-1.08,0-.32-.01-.53-.05-.64l-.05-.16c.22-.13.6-.19,1.15-.19.82,0,1.33.16,1.54.48s.24.89.09,1.7l-.2,1.1h2.18c.1.12.15.27.15.46s-.06.35-.19.46c-.13.12-.31.17-.55.17h-1.78l-1.06,6.06c-.11.61-.05,1.08.16,1.42s.58.51,1.1.51c.58,0,1.09-.18,1.55-.55s.82-.82,1.1-1.36c.15,0,.26.05.34.15.08.1.1.24.05.42-.09.34-.26.7-.51,1.08-.25.38-.56.73-.92,1.05-.36.33-.79.59-1.28.81-.49.21-.99.32-1.49.32-.83,0-1.52-.27-2.08-.8-.55-.53-.83-1.23-.83-2.1,0-.62.08-1.4.25-2.35l.82-4.65h-1.44c-.1-.11-.15-.27-.15-.46s.07-.35.2-.46c.13-.11.32-.17.55-.17h1.03Z"/>
    <path d="m251.67,263.59c.17-.06.39-.16.67-.28.27-.12.73-.36,1.36-.7.64-.35,1.15-.68,1.55-.99.15,0,.26.05.34.14.08.09.1.21.08.37-.04.19-.28.45-.72.78-.82.62-1.98,1.29-3.5,2.03l-.04.26c-.44,2.58-1.17,4.56-2.2,5.91-1.03,1.36-2.35,2.04-3.95,2.04-.75,0-1.34-.21-1.79-.64-.45-.43-.68-.98-.68-1.67,0-1.22.62-2.36,1.85-3.42.52-.45,1.09-.86,1.69-1.22s1.38-.78,2.34-1.26l.46-2.84c-.27.52-.57,1.01-.9,1.47-.46.64-.95,1.11-1.45,1.41-.5.3-1.05.46-1.65.46-.73,0-1.31-.23-1.75-.7-.43-.47-.65-1.09-.65-1.85s.09-1.64.27-2.7l.63-3.65c.07-.41.11-.77.11-1.09,0-.32,0-.53-.04-.64l-.05-.17c.22-.13.6-.19,1.15-.19.81,0,1.32.16,1.53.48.21.32.24.89.1,1.7l-.88,5.08c-.21,1.22.04,1.83.73,1.83.44,0,.98-.49,1.62-1.47.46-.71.88-1.54,1.28-2.51s.69-1.97.9-3.01c.08-.41.12-.77.12-1.09,0-.32-.01-.53-.05-.64l-.05-.17c.22-.13.61-.19,1.15-.19.81,0,1.32.16,1.53.48.21.32.24.89.1,1.7l-1.18,6.97Zm-6.65,8.1c.78,0,1.46-.46,2.04-1.37.58-.91,1.03-2.25,1.34-4-1.45.75-2.48,1.42-3.09,2.02-.87.84-1.3,1.63-1.3,2.35,0,.3.09.54.26.73s.42.27.75.27Z"/>
    <path d="m257.22,249.28c.07-.41.11-.77.11-1.08,0-.32-.01-.53-.05-.64l-.04-.16c.21-.14.59-.2,1.14-.2.81,0,1.32.16,1.53.48s.25.89.1,1.7l-2.16,12.23c-.11.64-.08,1.12.09,1.45s.45.49.85.49c.45,0,.9-.17,1.35-.52.45-.34.82-.81,1.1-1.4.15,0,.27.05.34.14.08.09.1.24.08.43-.06.3-.2.64-.43,1-.23.37-.52.72-.87,1.06-.35.34-.77.62-1.26.85s-1,.34-1.5.34c-.77,0-1.4-.24-1.87-.72s-.71-1.16-.71-2.03c0-.64.06-1.34.19-2.09l2.01-11.32Z"/>
    <path d="m265.77,265.44c-1.47,0-2.66-.43-3.58-1.28-.92-.85-1.38-2.01-1.38-3.47,0-.94.17-1.81.51-2.61.34-.8.79-1.46,1.34-1.98.56-.52,1.18-.93,1.88-1.22.7-.29,1.42-.44,2.15-.44,1.05,0,1.83.23,2.36.68s.79.99.79,1.61c0,1.92-2.06,3.27-6.18,4.05.06.85.38,1.55.94,2.1s1.3.82,2.21.82c.56,0,1.08-.06,1.57-.19s.9-.3,1.25-.51.63-.44.87-.67c.24-.23.44-.47.6-.72.31,0,.43.19.35.57-.04.2-.16.44-.34.71-.18.27-.44.56-.78.85-.34.3-.72.57-1.15.82-.43.25-.95.46-1.55.62s-1.22.25-1.86.25Zm.95-9.9c-.32,0-.65.09-.97.28-.33.19-.63.45-.92.79-.29.34-.53.78-.74,1.33-.21.55-.34,1.15-.4,1.81,1.28-.3,2.24-.76,2.86-1.37.63-.61.94-1.3.94-2.07,0-.23-.07-.42-.21-.56s-.33-.21-.56-.21Z"/>
    <path d="m106.14,286.71c-.16,0-.28-.06-.38-.18s-.15-.28-.15-.49c0-.43.14-.83.41-1.19s.63-.62,1.07-.76c.51-.17,1.08-.27,1.71-.32.63-.05,1.13-.11,1.5-.19.29-.06.57-.14.82-.24s.44-.19.54-.26l.17-.1s.08.07.12.12.11.18.19.38c.08.2.12.41.12.64,0,.55-.18.99-.53,1.3-.35.32-.81.48-1.36.48-.27,0-.52-.02-.73-.06-.12.79-.38,1.54-.77,2.27-.39.73-.88,1.36-1.46,1.91s-1.26.98-2.05,1.31c-.78.33-1.61.49-2.46.49-.92,0-1.76-.16-2.51-.47s-1.36-.79-1.83-1.43-.7-1.4-.7-2.28c0-1,.35-1.89,1.06-2.67s1.68-1.33,2.9-1.64c-.67-.32-1.19-.76-1.56-1.33-.37-.57-.56-1.21-.56-1.9,0-1.37.55-2.51,1.64-3.42s2.48-1.35,4.17-1.35c1.4,0,2.48.33,3.26.99.78.66,1.17,1.47,1.17,2.44,0,.73-.19,1.32-.56,1.77-.37.45-.9.68-1.58.68-.28,0-.53-.04-.76-.13s-.38-.18-.46-.26l-.13-.13s.06-.06.11-.11c.04-.05.12-.15.24-.31.11-.16.21-.32.3-.5s.17-.4.24-.68.11-.55.11-.83c0-1.14-.56-1.71-1.69-1.71-.85,0-1.57.35-2.15,1.06-.58.71-.87,1.56-.87,2.54,0,.36.04.69.13.99s.22.58.41.84c.19.26.45.46.8.59s.76.19,1.24.17c.01.06.02.15.02.25,0,.56-.39.84-1.17.84h-.5c-.86.21-1.54.61-2.03,1.2s-.74,1.27-.74,2.04c0,.42.05.8.16,1.14.1.34.27.65.49.92s.54.49.94.64c.4.15.88.23,1.43.23,1.19,0,2.18-.4,2.98-1.21.8-.81,1.34-1.88,1.62-3.24-.2-.03-.37-.04-.5-.04-.4,0-.77.1-1.12.29-.34.2-.61.5-.78.9Z"/>
    <path d="m122.86,275.34c.79,0,1.31.18,1.54.54.23.36.27.98.12,1.85l-2.06,11.79c-.08.46-.12.86-.12,1.21,0,.35.01.58.05.7l.05.18c-.24.14-.66.21-1.26.21-.79,0-1.31-.18-1.54-.54-.23-.36-.27-.98-.12-1.85l2.07-11.81c.07-.49.11-.84.11-1.07h-.23c-.95,0-1.69.23-2.21.68-.52.46-.78,1.02-.78,1.69,0,.31.08.55.24.74s.37.27.64.27c.07,0,.14,0,.2-.02s.11-.02.13-.03l.04-.02s.02.11.02.19c0,.3-.15.58-.45.84s-.71.39-1.22.39c-.71,0-1.27-.2-1.69-.6-.42-.4-.62-.93-.62-1.6,0-1.12.49-2.02,1.47-2.72s2.34-1.04,4.07-1.04h1.54Z"/>
    <path d="m132.87,284.16c.09-.51.08-.87-.01-1.07s-.26-.31-.52-.31c-.46,0-.97.32-1.53.96-.56.64-1.09,1.5-1.57,2.59-.49,1.09-.84,2.23-1.05,3.42-.07.41-.11.77-.11,1.09,0,.32,0,.53.04.64l.05.17c-.22.13-.6.19-1.15.19-.81,0-1.32-.16-1.53-.48-.21-.32-.24-.89-.1-1.7l1.16-6.72c.07-.41.11-.77.11-1.09,0-.32,0-.53-.04-.64l-.05-.17c.22-.13.6-.19,1.15-.19.81,0,1.32.16,1.52.48.21.32.24.89.1,1.7l-.17,1.01c.23-.38.49-.75.79-1.11s.64-.7,1-1.02c.37-.32.77-.58,1.21-.77.44-.19.87-.29,1.29-.29.69,0,1.24.21,1.65.62.41.41.62.96.62,1.65,0,.4-.06,1-.19,1.78l-.53,3.1c-.23,1.29.07,1.93.9,1.93.45,0,.88-.17,1.27-.52s.74-.81,1.04-1.4c.15,0,.27.05.34.14.08.09.1.24.08.43-.04.29-.17.61-.4.98-.22.37-.5.72-.83,1.06-.33.34-.74.63-1.21.86-.48.23-.95.35-1.43.35-.82,0-1.47-.25-1.95-.75-.48-.5-.71-1.17-.71-2,0-.41.11-1.24.33-2.5l.42-2.43Z"/>
    <path d="m143.85,285.71c.79.41,1.35.84,1.68,1.3s.5.99.5,1.59c0,.93-.4,1.7-1.2,2.32s-1.96.92-3.47.92c-.67,0-1.27-.08-1.8-.24s-.95-.37-1.26-.63c-.31-.26-.54-.54-.7-.83-.16-.29-.24-.59-.24-.89,0-.4.14-.72.42-.96s.62-.36,1.03-.36c.22,0,.42.03.6.08.17.05.29.11.36.16l.1.08c-.07.17-.11.38-.11.64,0,.56.15,1.01.46,1.35.3.34.76.51,1.37.52.59,0,1.05-.13,1.37-.4.32-.26.48-.59.48-.99,0-.54-.36-1.01-1.08-1.39l-2.15-1.15c-.61-.33-1.08-.7-1.41-1.12s-.5-.96-.5-1.63c0-.94.4-1.71,1.21-2.32s1.96-.91,3.45-.91c.65,0,1.24.08,1.77.24.53.16.95.37,1.26.63.31.26.55.54.72.84.17.3.25.59.25.89,0,.4-.14.72-.42.96-.28.24-.63.36-1.04.36-.22,0-.42-.03-.6-.08s-.29-.11-.36-.16l-.1-.08c.07-.17.11-.38.11-.64,0-.54-.16-.99-.49-1.34s-.79-.53-1.38-.53-1.03.13-1.34.39-.47.59-.47,1c0,.31.09.57.26.78.17.21.45.41.83.61l1.89,1Z"/>
    <path d="m151.84,283.42c.46-.84,1-1.48,1.6-1.92s1.25-.66,1.94-.66c1.01,0,1.79.33,2.34,1s.83,1.58.83,2.74c0,.62-.06,1.24-.17,1.85.31-.04.62-.12.93-.25.3-.13.56-.28.77-.44.21-.16.39-.32.55-.48s.28-.29.36-.4l.12-.15c.14,0,.25.05.32.15s.09.24.07.41c-.07.43-.44.88-1.1,1.35s-1.42.74-2.26.82c-.42,1.35-1.09,2.43-2.01,3.22-.92.79-1.92,1.19-3.01,1.19-1.03,0-1.88-.36-2.55-1.07l-1.17,6.68c-.07.41-.11.77-.11,1.08,0,.32.01.53.05.63l.04.17c-.22.14-.61.2-1.15.2-.81,0-1.32-.16-1.53-.48-.21-.32-.24-.89-.1-1.7l2.5-14.42c.07-.41.11-.77.11-1.09,0-.32,0-.53-.04-.64l-.05-.17c.22-.13.61-.19,1.15-.19.82,0,1.33.16,1.53.47.2.32.23.88.09,1.71l-.06.4Zm2.75,1.69c0-.37.1-.7.29-.97.2-.28.47-.45.81-.52-.12-.72-.48-1.07-1.08-1.07-.63,0-1.31.58-2.04,1.73-.77,1.23-1.31,2.66-1.63,4.3l-.15.84c.39.63.95.95,1.68.95.61,0,1.18-.32,1.72-.97s.95-1.49,1.22-2.53c-.54-.43-.82-1.01-.82-1.74Z"/>
    <path d="m161.21,282.93c.07-.42.11-.78.11-1.1,0-.32,0-.53-.04-.64l-.05-.16c.22-.13.6-.19,1.15-.19.81,0,1.32.16,1.53.48.21.32.24.89.1,1.7l-.86,4.97c-.21,1.29.11,1.93.95,1.93.39,0,.81-.17,1.24-.52s.79-.81,1.07-1.39c.15,0,.27.05.34.14.08.09.1.24.08.43-.04.24-.14.51-.28.79-.14.28-.34.57-.58.86s-.52.55-.82.79c-.3.24-.65.43-1.04.58-.39.15-.79.23-1.2.23-.77,0-1.4-.24-1.87-.72s-.71-1.16-.71-2.03c0-.64.06-1.34.19-2.09l.71-4.06Zm.77-5.39c0-.44.15-.82.45-1.13s.66-.46,1.08-.46.75.13.99.39c.25.26.37.59.37.99s-.15.76-.44,1.07c-.29.3-.67.46-1.14.46-.39,0-.71-.12-.96-.37-.24-.25-.37-.56-.37-.95Z"/>
    <path d="m169.84,283.99c.65-1.1,1.32-1.89,2-2.4.68-.5,1.31-.75,1.87-.75s.97.15,1.28.45c.31.3.47.72.47,1.27,0,.62-.17,1.12-.51,1.51-.34.39-.78.59-1.32.59-.17,0-.34-.01-.5-.03s-.29-.04-.37-.06l-.12-.03c.19-.34.29-.7.29-1.1,0-.32-.15-.48-.46-.48-.42,0-.95.43-1.57,1.29-.49.68-.89,1.43-1.22,2.26-.33.83-.62,1.95-.86,3.38-.06.39-.1.73-.1,1.02s.01.49.04.59l.05.15c-.22.13-.61.19-1.15.19-.81,0-1.32-.16-1.53-.48-.21-.32-.24-.89-.1-1.7l1.16-6.72c.07-.41.11-.77.11-1.09,0-.32,0-.53-.04-.64l-.05-.17c.22-.13.6-.19,1.15-.19.81,0,1.32.17,1.53.5.21.33.24.89.1,1.68l-.17.97Z"/>
    <path d="m176.82,282.93c.07-.42.11-.78.11-1.1,0-.32,0-.53-.04-.64l-.05-.16c.22-.13.6-.19,1.15-.19.81,0,1.32.16,1.53.48.21.32.24.89.1,1.7l-.86,4.97c-.21,1.29.11,1.93.95,1.93.39,0,.81-.17,1.24-.52s.79-.81,1.07-1.39c.15,0,.27.05.34.14.08.09.1.24.08.43-.04.24-.14.51-.28.79-.14.28-.34.57-.58.86s-.52.55-.82.79c-.3.24-.65.43-1.04.58-.39.15-.79.23-1.2.23-.77,0-1.4-.24-1.87-.72s-.71-1.16-.71-2.03c0-.64.06-1.34.19-2.09l.71-4.06Zm.77-5.39c0-.44.15-.82.45-1.13s.66-.46,1.08-.46.75.13.99.39c.25.26.37.59.37.99s-.15.76-.44,1.07c-.29.3-.67.46-1.14.46-.39,0-.71-.12-.96-.37-.24-.25-.37-.56-.37-.95Z"/>
    <path d="m189.15,284.16c.09-.51.08-.87-.01-1.07s-.26-.31-.52-.31c-.46,0-.97.32-1.53.96-.56.64-1.09,1.5-1.57,2.59-.49,1.09-.84,2.23-1.05,3.42-.07.41-.11.77-.11,1.09,0,.32,0,.53.04.64l.05.17c-.22.13-.61.19-1.15.19-.81,0-1.32-.16-1.53-.48-.21-.32-.24-.89-.1-1.7l1.16-6.72c.07-.41.11-.77.11-1.09,0-.32,0-.53-.04-.64l-.05-.17c.22-.13.6-.19,1.15-.19.81,0,1.32.16,1.53.48.21.32.24.89.1,1.7l-.17,1.01c.23-.38.49-.75.79-1.11.3-.36.63-.7,1-1.02.37-.32.77-.58,1.21-.77s.87-.29,1.29-.29c.69,0,1.24.21,1.65.62.41.41.62.96.62,1.65,0,.4-.06,1-.19,1.78l-.53,3.1c-.23,1.29.07,1.93.9,1.93.45,0,.88-.17,1.27-.52s.74-.81,1.04-1.4c.15,0,.26.05.34.14.08.09.1.24.08.43-.04.29-.18.61-.4.98-.22.37-.5.72-.83,1.06-.33.34-.74.63-1.21.86-.48.23-.95.35-1.43.35-.82,0-1.47-.25-1.95-.75-.48-.5-.71-1.17-.71-2,0-.41.11-1.24.33-2.5l.42-2.43Z"/>
    <path d="m203.17,289.99c.17-.06.4-.16.67-.28.28-.12.73-.36,1.37-.7.64-.35,1.15-.68,1.55-.99.14,0,.26.04.34.13s.11.21.08.37c-.04.19-.28.45-.72.78-.82.62-1.98,1.29-3.5,2.03l-.04.26c-.44,2.58-1.17,4.56-2.2,5.91-1.03,1.36-2.35,2.04-3.96,2.04-.75,0-1.34-.21-1.79-.64-.45-.43-.67-.98-.67-1.67,0-1.22.62-2.36,1.85-3.42.52-.45,1.08-.86,1.68-1.23.61-.37,1.39-.79,2.35-1.25l.26-1.57c-.89,1.38-1.93,2.07-3.11,2.07-.95,0-1.73-.32-2.33-.97s-.9-1.58-.9-2.81c0-.95.11-1.83.32-2.63.21-.8.49-1.48.85-2.04.35-.55.77-1.03,1.24-1.42.47-.39.96-.68,1.47-.86s1.03-.27,1.55-.27c1.02,0,1.81.36,2.38,1.07.18-.39.42-.67.71-.83.3-.16.72-.24,1.26-.24.22,0,.42.02.61.05.18.04.31.07.38.11l.11.05c-.21.27-.38.79-.5,1.59l-1.28,7.35Zm-6.64,8.1c.77,0,1.45-.46,2.02-1.37s1.03-2.25,1.36-4c-1.49.77-2.52,1.45-3.09,2.02-.87.84-1.3,1.63-1.3,2.35,0,.3.09.54.26.73s.42.27.75.27Zm1.65-8.16c.37,0,.73-.18,1.08-.54.35-.36.66-.82.92-1.4.26-.57.49-1.16.68-1.77.19-.6.34-1.2.46-1.8l.2-1.03c-.31-.71-.79-1.06-1.45-1.06-.38,0-.76.14-1.13.41-.38.28-.72.65-1.02,1.13s-.55,1.09-.75,1.83-.29,1.54-.29,2.39c0,.61.11,1.07.34,1.37s.55.46.96.46Z"/>
    <path d="m216.32,275.34c.7,0,1.91.08,3.63.25,1.73.17,3.39.25,4.99.25.38,0,.74-.03,1.08-.09.34-.06.59-.12.75-.18l.23-.09c.17.17.25.41.25.73,0,.62-.22,1.11-.66,1.49-.44.38-1.11.57-2.01.57-.25,0-.5-.01-.74-.03s-.44-.04-.61-.06c-.17-.02-.37-.06-.61-.13s-.41-.11-.52-.15-.3-.09-.59-.18c-.29-.09-.48-.15-.59-.19l-2.09,11.99c-.08.46-.12.86-.12,1.21,0,.35.01.58.05.7l.05.18c-.24.14-.66.21-1.26.21-.79,0-1.3-.18-1.53-.54s-.26-.98-.11-1.86l2.06-11.81.12-.86c-.75-.14-1.36-.21-1.83-.21-.96,0-1.71.23-2.26.69s-.82,1.02-.82,1.69c0,.31.08.55.24.74.16.18.37.27.64.27.07,0,.14,0,.2-.02s.11-.02.13-.03l.04-.02s.02.11.02.19c0,.3-.15.58-.45.84s-.71.39-1.22.39c-.71,0-1.27-.2-1.69-.6-.42-.4-.62-.93-.62-1.6,0-1.13.5-2.04,1.5-2.73,1-.69,2.45-1.03,4.33-1.03Z"/>
    <path d="m233.82,287.99c-.12.64-.1,1.13.08,1.45s.46.48.87.48.81-.17,1.24-.52.79-.81,1.07-1.39c.15,0,.26.05.34.14.08.09.1.24.08.43-.04.24-.14.51-.28.79-.14.28-.34.57-.59.86s-.52.55-.82.79c-.3.24-.65.43-1.04.58s-.79.23-1.2.23c-.74,0-1.34-.22-1.8-.66s-.72-1.04-.77-1.83c-.44.81-.96,1.43-1.54,1.85-.58.42-1.19.63-1.83.63-.95,0-1.73-.32-2.33-.97s-.9-1.58-.9-2.81c0-.95.11-1.83.32-2.63.21-.8.49-1.48.85-2.04.35-.55.77-1.03,1.24-1.42.47-.39.96-.68,1.47-.86s1.03-.27,1.55-.27c1.02,0,1.81.36,2.38,1.07.18-.39.42-.67.71-.83.3-.16.72-.24,1.26-.24.22,0,.42.02.61.05.18.04.31.07.38.11l.11.05c-.19.27-.36.79-.5,1.59l-.95,5.35Zm-5.32,1.93c.37,0,.73-.18,1.08-.54.35-.36.66-.82.92-1.4.26-.57.49-1.16.68-1.77.19-.6.34-1.2.46-1.8l.2-1.03c-.31-.71-.79-1.06-1.45-1.06-.38,0-.76.14-1.13.41-.38.28-.72.65-1.02,1.13s-.55,1.09-.75,1.83-.29,1.54-.29,2.39c0,.61.11,1.07.34,1.37s.55.46.96.46Z"/>
    <path d="m239.05,275.67c.07-.41.11-.77.11-1.08,0-.32-.01-.53-.05-.64l-.04-.16c.21-.14.59-.2,1.14-.2.81,0,1.32.16,1.53.48s.25.89.1,1.7l-2.16,12.23c-.11.64-.08,1.12.09,1.45s.45.49.85.49c.45,0,.9-.17,1.35-.52.45-.34.82-.81,1.1-1.4.15,0,.27.05.34.14.08.09.1.24.08.43-.06.3-.2.64-.43,1-.23.37-.52.72-.87,1.06-.35.34-.77.62-1.26.85s-1,.34-1.5.34c-.77,0-1.4-.24-1.87-.72s-.71-1.16-.71-2.03c0-.64.06-1.34.19-2.09l2.01-11.32Z"/>
    <path d="m247.6,291.84c-1.47,0-2.66-.43-3.58-1.28-.92-.85-1.38-2.01-1.38-3.47,0-.94.17-1.81.51-2.61.34-.8.79-1.46,1.34-1.98.56-.52,1.18-.93,1.88-1.22.7-.29,1.42-.44,2.15-.44,1.05,0,1.83.23,2.36.68s.79.99.79,1.61c0,1.92-2.06,3.27-6.18,4.05.06.85.38,1.55.94,2.1s1.3.82,2.21.82c.56,0,1.08-.06,1.57-.19s.9-.3,1.25-.51.63-.44.87-.67c.24-.23.44-.47.6-.72.31,0,.43.19.35.57-.04.2-.16.44-.34.71-.18.27-.44.56-.78.85-.34.3-.72.57-1.15.82-.43.25-.95.46-1.55.62s-1.22.25-1.86.25Zm.95-9.9c-.32,0-.65.09-.97.28-.33.19-.63.45-.92.79-.29.34-.53.78-.74,1.33-.21.55-.34,1.15-.4,1.81,1.28-.3,2.24-.76,2.86-1.37.63-.61.94-1.3.94-2.07,0-.23-.07-.42-.21-.56s-.33-.21-.56-.21Z"/>
    <path d="m260.13,284.16c.09-.51.08-.87-.01-1.07s-.26-.31-.52-.31c-.46,0-.97.32-1.53.96-.56.64-1.09,1.5-1.57,2.59-.49,1.09-.84,2.23-1.05,3.42-.07.41-.11.77-.11,1.09,0,.32,0,.53.04.64l.05.17c-.22.13-.61.19-1.15.19-.81,0-1.32-.16-1.53-.48-.21-.32-.24-.89-.1-1.7l1.16-6.72c.07-.41.11-.77.11-1.09,0-.32,0-.53-.04-.64l-.05-.17c.22-.13.6-.19,1.15-.19.81,0,1.32.16,1.53.48.21.32.24.89.1,1.7l-.17,1.01c.23-.38.49-.75.79-1.11.3-.36.63-.7,1-1.02.37-.32.77-.58,1.21-.77s.87-.29,1.29-.29c.69,0,1.24.21,1.65.62.41.41.62.96.62,1.65,0,.4-.06,1-.19,1.78l-.53,3.1c-.23,1.29.07,1.93.9,1.93.45,0,.88-.17,1.27-.52s.74-.81,1.04-1.4c.15,0,.26.05.34.14.08.09.1.24.08.43-.04.29-.18.61-.4.98-.22.37-.5.72-.83,1.06-.33.34-.74.63-1.21.86-.48.23-.95.35-1.43.35-.82,0-1.47-.25-1.95-.75-.48-.5-.71-1.17-.71-2,0-.41.11-1.24.33-2.5l.42-2.43Z"/>
    <path d="m266.62,280.84l.21-1.19c.08-.41.12-.77.12-1.08,0-.32-.01-.53-.05-.64l-.05-.16c.22-.13.6-.19,1.15-.19.82,0,1.33.16,1.54.48s.24.89.09,1.7l-.2,1.1h2.18c.1.12.15.27.15.46s-.06.35-.19.46c-.13.12-.31.17-.55.17h-1.78l-1.06,6.06c-.11.61-.05,1.08.16,1.42s.58.51,1.1.51c.58,0,1.09-.18,1.55-.55s.82-.82,1.1-1.36c.15,0,.26.05.34.15.08.1.1.24.05.42-.09.34-.26.7-.51,1.08-.25.38-.56.73-.92,1.05-.36.33-.79.59-1.28.81-.49.21-.99.32-1.49.32-.83,0-1.52-.27-2.08-.8-.55-.53-.83-1.23-.83-2.1,0-.62.08-1.4.25-2.35l.82-4.65h-1.44c-.1-.11-.15-.27-.15-.46s.07-.35.2-.46c.13-.11.32-.17.55-.17h1.03Z"/>
    <path d="m277.66,285.71c.79.41,1.35.84,1.68,1.3s.5.99.5,1.59c0,.93-.4,1.7-1.2,2.32-.8.61-1.96.92-3.47.92-.67,0-1.28-.08-1.8-.24-.53-.16-.95-.37-1.26-.63-.31-.26-.54-.54-.7-.83-.16-.29-.24-.59-.24-.89,0-.4.14-.72.42-.96.28-.24.62-.36,1.03-.36.22,0,.42.03.6.08.18.05.3.11.36.16l.1.08c-.07.17-.11.38-.11.64,0,.56.15,1.01.46,1.35.3.34.76.51,1.37.52.59,0,1.05-.13,1.37-.4.32-.26.48-.59.48-.99,0-.54-.36-1.01-1.08-1.39l-2.15-1.15c-.61-.33-1.08-.7-1.41-1.12-.33-.42-.5-.96-.5-1.63,0-.94.4-1.71,1.21-2.32s1.96-.91,3.45-.91c.65,0,1.24.08,1.77.24.53.16.95.37,1.26.63.31.26.55.54.72.84.17.3.25.59.25.89,0,.4-.14.72-.42.96-.28.24-.63.36-1.04.36-.22,0-.42-.03-.6-.08-.18-.05-.3-.11-.36-.16l-.1-.08c.07-.17.11-.38.11-.64,0-.54-.16-.99-.49-1.34-.33-.35-.79-.53-1.38-.53s-1.03.13-1.34.39-.47.59-.47,1c0,.31.09.57.26.78.17.21.45.41.83.61l1.89,1Z"/>
  </g>
  <path class="cls-3" d="m187.5,339.52c-82.84,0-150.24-67.4-150.24-150.24S104.66,39.04,187.5,39.04s150.24,67.4,150.24,150.24-67.4,150.24-150.24,150.24Zm0-292.48c-78.43,0-142.24,63.81-142.24,142.24s63.81,142.24,142.24,142.24,142.24-63.81,142.24-142.24S265.93,47.04,187.5,47.04Z"/>
</svg>